<?xml version="1.0" encoding="UTF-8"?>
<svg id="Capa_1" xmlns="http://www.w3.org/2000/svg" viewBox="0 0 693.89 161.95">
  <defs>
    <style>
      .cls-1 {
        fill: #fff;
      }
    </style>
  </defs>
  <path class="cls-1" d="M70,.16c-10.92,2.26-20.92,6.76-30,13.5C10.35,40.16-2.82,73.32.5,113.16c4.46,25.79,19.29,41.96,44.5,48.5,27.21,2.13,49.04-7.7,65.5-29.5,17.82-25.62,24.82-53.96,21-85C124.4,13.88,103.9-1.78,70,.16ZM86.5,126.16c-9.06,11.61-20.89,16.78-35.5,15.5-11.5-3.12-18.33-10.62-20.5-22.5-3.79-29.51,2.21-56.84,18-82,7.21-10.76,17.04-17.1,29.5-19,13.04.87,21.54,7.54,25.5,20,7.03,31.84,1.36,61.18-17,88Z"/>
  <path class="cls-1" d="M691,110.16c-1.22-1.11-2.56-1.28-4-.5-6.33,9-14,16.67-23,23-5.17,1.87-8.17.2-9-5,3.17-14.69,6.51-29.36,10-44-.35-3.78-1.68-7.11-4-10-8.34-3.67-16.34-3-24,2-10.23,9.31-18.4,20.14-24.5,32.5,1.68-10.9,4.52-21.57,8.5-32-.18-1.05-.51-2.05-1-3-6.85-4-13.35-3.34-19.5,2-3.29,7.51-6.13,15.17-8.5,23-4.71,2.43-9.71,3.76-15,4,.09-9.91-3.25-18.41-10-25.5-13.99-7.77-27.66-7.1-41,2-12.62,12.42-18.79,27.59-18.5,45.5-3.06,2.72-6.39,5.06-10,7-.17-5.08-.84-10.08-2-15-2.83-5.67-6.17-11-10-16-4.86-8.53-4.52-16.87,1-25,.57-4.11-1.26-6.61-5.5-7.5-6.3-.57-11.8,1.27-16.5,5.5-5.4,11.12-11.06,22.12-17,33-2.33,3.33-4.67,6.67-7,10-11.33,13.75-25.83,19.92-43.5,18.5-3.42-1.25-6.08-3.42-8-6.5,9.94-2.37,19.27-6.2,28-11.5,11.99-9.62,15.16-21.46,9.5-35.5-11.64-12.19-24.81-14.02-39.5-5.5-17.12,11.99-24.62,28.49-22.5,49.5-3.08,2.79-6.58,4.96-10.5,6.5-11.63,1.97-15.8-2.86-12.5-14.5,4.67-17.99,9.33-35.99,14-54,3.24-11.35,3.24-22.68,0-34-7.95-16.65-20.12-20.48-36.5-11.5-11.64,7.97-20.81,18.14-27.5,30.5-.06-7.48-1.06-14.81-3-22-8.39-17.32-20.89-20.82-37.5-10.5-9.24,7.01-16.74,15.51-22.5,25.5.79-6.01.46-12.01-1-18-3.42-11.13-10.92-15.8-22.5-14-9.4,4.14-17.56,10.14-24.5,18-4.56,4.44-6.22,9.78-5,16,2.88,4.73,6.38,5.23,10.5,1.5,5.03-5.37,10.36-10.37,16-15,1.72-1.56,3.72-2.39,6-2.5-.4,8.76-1.57,17.43-3.5,26-4.34,17.34-8.67,34.67-13,52-3.74,14.12-5.41,28.45-5,43,.47,1.43,1.3,2.6,2.5,3.5,6.84,3.61,13.34,3.11,19.5-1.5,6.22-25.86,13.22-51.53,21-77,4.24-9.48,9.24-18.48,15-27,3.55-5.21,8.05-9.38,13.5-12.5,2-.67,4-.67,6,0,1.99,5.65,2.49,11.48,1.5,17.5-3.87,22.5-8.54,44.83-14,67-1.49,7.95-2.66,15.95-3.5,24-.28,5.88,2.38,9.72,8,11.5,6.79,1.74,12.29-.1,16.5-5.5,5.18-23.89,12.18-47.22,21-70,6.33-15.17,15.5-28.34,27.5-39.5,2.62-2.27,5.62-2.94,9-2,1.98,3.93,2.48,8.1,1.5,12.5-5.13,20.38-10.46,40.71-16,61-1.02,5.14-1.85,10.3-2.5,15.5.14,10.61,4.47,18.95,13,25,17.08,6.32,32.41,3.49,46-8.5,15.34,12.69,32.34,15.19,51,7.5,5.82-2.94,11.19-6.32,16.12-10.15h0s-.02.02-.02.02c.02.04.04.08.06.12v.03s.01,0,.01,0c5.59,13.19,31.93,18.86,44.83,11.97,11.56-.29,21.4-4.46,29.5-12.5,2.46,3.46,5.3,6.63,8.5,9.5,16.34,8.8,30.84,6.3,43.5-7.5,4.77-7.05,8.61-14.55,11.5-22.5,4.68-1.01,9.34-1.67,14-2-1.77,10.99-.94,21.83,2.5,32.5,5.4,6.03,11.06,6.37,17,1,4.21-15.63,10.54-30.3,19-44,2.47-4,5.97-6,10.5-6-1.67,9.68-3.5,19.35-5.5,29-.67,4.67-.67,9.33,0,14,1.01,4.34,3.51,7.51,7.5,9.5,7.44,2.1,14.77,1.77,22-1,9.85-4.68,18.35-11.18,25.5-19.5,5.3-6.99,5.8-14.33,1.5-22ZM400,88.16c9.3-.08,12.14,4.25,8.5,13-5.62,6.51-12.79,10.51-21.5,12-.16-10.67,4.17-19.01,13-25ZM473.5,132.16c-3.54,4.67-23.08,12.46-26.08.08.11-.1.17-.16,0,0,8.1-7.56,12.83-14.67,18.08-25.07,3.19,5.05,5.86,10.39,8,16,.67,3,.67,6,0,9ZM556.73,118.6c-.3,1.49-.68,2.88-1.16,4.15-.81,2.93-4.66,13.23-18.57,10.92,0,0-11.38-4.64-6.09-28.12,0,0,2.84-15.07,16.04-17.8,0,0,17.1,3.18,9.78,30.86Z"/>
</svg>